<svg width="28" height="34" viewBox="0 0 28 34" fill="none" xmlns="http://www.w3.org/2000/svg">
<path d="M23.3294 32.6359C21.5202 34.4301 19.5448 34.1468 17.6434 33.2969C15.6311 32.4281 13.785 32.3904 11.662 33.2969C9.00359 34.4679 7.60055 34.1279 6.0129 32.6359C-2.99608 23.136 -1.66689 8.66891 8.56053 8.14008C11.0528 8.27229 12.7881 9.53768 14.2465 9.651C16.4249 9.19773 18.511 7.89456 20.8371 8.06454C23.6247 8.29118 25.7293 9.42437 27.1139 11.4641C21.354 14.9959 22.7201 22.7582 28 24.9302C26.9477 27.7632 25.5816 30.5773 23.3109 32.6548L23.3294 32.6359ZM14.0619 8.02676C13.785 3.81507 17.1264 0.339957 20.9663 0C21.5017 4.87272 16.6465 8.49893 14.0619 8.02676Z" fill="#FDFDFD"/>
</svg>
