<svg width="43" height="50" viewBox="0 0 43 50" fill="none" xmlns="http://www.w3.org/2000/svg">
<path d="M42.3878 36.2477C41.2286 38.8142 40.6742 39.9618 39.1855 42.2298C37.1055 45.3973 34.1687 49.3498 30.538 49.3769C27.3085 49.4041 26.475 47.2698 22.0921 47.3047C17.7093 47.326 16.7962 49.4157 13.5629 49.3827C9.93215 49.3498 7.15239 45.7888 5.07048 42.6272C-0.750716 33.7587 -1.36521 23.3647 2.23258 17.8343C4.77778 13.9128 8.8059 11.6099 12.5878 11.6099C16.4396 11.6099 18.8607 13.7267 22.0456 13.7267C25.1355 13.7267 27.0177 11.6041 31.4723 11.6041C34.8414 11.6041 38.4043 13.4398 40.9495 16.6072C32.6218 21.1704 33.9749 33.0648 42.3878 36.2477ZM28.0917 8.06443C29.7122 5.98446 30.9412 3.04963 30.4953 0.0566406C27.8513 0.236918 24.7594 1.92532 22.9528 4.1119C21.3167 6.1027 19.9598 9.06079 20.489 11.922C23.3734 12.015 26.3587 10.2956 28.0917 8.06443Z" fill="#E0E0E0"/>
</svg>
