<svg width="15" height="12" viewBox="0 0 15 12" fill="none" xmlns="http://www.w3.org/2000/svg">
<path d="M14.4834 6.00015L8.9919 0.50865C8.88358 0.400331 8.75499 0.314408 8.61346 0.255786C8.47194 0.197164 8.32025 0.166992 8.16706 0.166992C8.01388 0.166992 7.86219 0.197164 7.72067 0.255786C7.57914 0.314408 7.45055 0.400331 7.34223 0.50865C7.23391 0.616969 7.14799 0.745561 7.08937 0.887087C7.03075 1.02861 7.00057 1.1803 7.00057 1.33348C7.00057 1.48667 7.03075 1.63835 7.08937 1.77988C7.14799 1.9214 7.23391 2.05 7.34223 2.15832L10.0174 4.83348H1.16706C0.857645 4.83348 0.560898 4.9564 0.342106 5.17519C0.123313 5.39398 0.000397721 5.69073 0.000397721 6.00015C0.000397721 6.30957 0.123313 6.60632 0.342106 6.82511C0.560898 7.0439 0.857645 7.16682 1.16706 7.16682H10.0174L7.34223 9.84198C7.23352 9.95008 7.14724 10.0786 7.08837 10.2202C7.0295 10.3617 6.99919 10.5135 6.99919 10.6668C6.99919 10.8201 7.0295 10.9719 7.08837 11.1135C7.14724 11.255 7.23352 11.3836 7.34223 11.4917C7.56101 11.7104 7.85771 11.8332 8.16706 11.8332C8.47642 11.8332 8.77312 11.7104 8.9919 11.4917L14.4834 6.00015Z" fill="#B4B4B4"/>
</svg>
