<svg width="11" height="12" viewBox="0 0 11 12" fill="none" xmlns="http://www.w3.org/2000/svg">
<path d="M10.8756 0.879548L3.10949 0.879549C2.9563 0.879549 2.80462 0.90972 2.66309 0.968342C2.52157 1.02696 2.39297 1.11289 2.28465 1.22121C2.17634 1.32952 2.09041 1.45812 2.03179 1.59964C1.97317 1.74117 1.943 1.89285 1.943 2.04604C1.943 2.19922 1.97317 2.35091 2.03179 2.49244C2.09041 2.63396 2.17634 2.76255 2.28465 2.87087C2.39297 2.97919 2.52157 3.06511 2.66309 3.12374C2.80462 3.18236 2.9563 3.21253 3.10949 3.21253H6.89275L0.634614 9.47066C0.415822 9.68945 0.292905 9.9862 0.292905 10.2956C0.292905 10.605 0.415822 10.9018 0.634614 11.1206C0.853407 11.3394 1.15015 11.4623 1.45957 11.4623C1.76899 11.4623 2.06574 11.3394 2.28453 11.1206L8.54266 4.86244L8.54266 8.6457C8.54222 8.79901 8.5721 8.95089 8.63056 9.09262C8.68903 9.23434 8.77493 9.36311 8.88334 9.47151C8.99175 9.57992 9.12051 9.66583 9.26224 9.72429C9.40396 9.78276 9.55584 9.81263 9.70915 9.81219C10.0185 9.81215 10.3152 9.68923 10.5339 9.47048C10.7527 9.25173 10.8756 8.95506 10.8756 8.6457L10.8756 0.879548Z" fill="#1C1C1E"/>
</svg>
