<svg width="44" height="44" viewBox="0 0 44 44" fill="none" xmlns="http://www.w3.org/2000/svg">
<rect width="44" height="44" rx="10" fill="#31353F"/>
<path d="M24.9703 22.75H24.2003H19.5303V25.58H20.8403H24.9703C25.9203 25.58 26.7003 24.94 26.7003 24.16C26.7003 23.38 25.9203 22.75 24.9703 22.75Z" fill="#FFC01E"/>
<path d="M22 12C16.48 12 12 16.48 12 22C12 27.52 16.48 32 22 32C27.52 32 32 27.52 32 22C32 16.48 27.52 12 22 12ZM24.97 27.08H23.32V28.5C23.32 28.91 22.98 29.25 22.57 29.25C22.16 29.25 21.82 28.91 21.82 28.5V27.08H20.84H20.61V28.5C20.61 28.91 20.27 29.25 19.86 29.25C19.45 29.25 19.11 28.91 19.11 28.5V27.08H18.78H17.05C16.64 27.08 16.3 26.74 16.3 26.33C16.3 25.92 16.64 25.58 17.05 25.58H18.03V22V18.42H17.05C16.64 18.42 16.3 18.08 16.3 17.67C16.3 17.26 16.64 16.92 17.05 16.92H18.78H19.11V15.5C19.11 15.09 19.45 14.75 19.86 14.75C20.27 14.75 20.61 15.09 20.61 15.5V16.92H20.84H21.82V15.5C21.82 15.09 22.16 14.75 22.57 14.75C22.98 14.75 23.32 15.09 23.32 15.5V16.92H24.2C25.75 16.92 27.12 18.28 27.12 19.84C27.12 20.51 26.88 21.12 26.5 21.62C27.51 22.11 28.2 23.07 28.2 24.18C28.2 25.77 26.75 27.08 24.97 27.08Z" fill="#FFC01E"/>
<path d="M25.6203 19.8302C25.6203 19.1702 25.0003 18.4102 24.2003 18.4102H20.8403H19.5303V21.2402H24.2003C24.9803 21.2502 25.6203 20.6102 25.6203 19.8302Z" fill="#FFC01E"/>
</svg>
