<svg width="40" height="40" viewBox="0 0 40 40" fill="none" xmlns="http://www.w3.org/2000/svg">
<rect x="-0.000976562" y="0.577148" width="39.3656" height="39.3656" rx="8.94673" fill="#31353F"/>
<path d="M16.7925 22.4342L18.233 23.0784C19.1545 23.49 20.2102 23.49 21.1406 23.0784L22.5811 22.4342C23.8694 21.8617 25.0593 23.4184 24.1646 24.5099L21.0691 28.2944C20.3086 29.2248 19.065 29.2248 18.2956 28.2944L15.209 24.5099C14.3053 23.4184 15.4953 21.8617 16.7925 22.4342Z" fill="#3A6FF8"/>
<path d="M16.6134 19.9649C16.345 20.1618 16.3808 20.5733 16.685 20.7254L18.7875 21.7722C19.2796 22.0227 20.0758 22.0227 20.5589 21.7722L22.6614 20.7254C22.9567 20.5733 22.9925 20.1707 22.733 19.9649L19.9506 17.8714C19.7895 17.7551 19.5748 17.7551 19.4138 17.8714L16.6134 19.9649Z" fill="#3A6FF8"/>
<path d="M24.9431 16.8961L21.2123 12.2438C21.1407 12.1543 21.0602 12.0738 20.9797 11.9933C20.747 11.7696 20.416 11.9754 20.416 12.2975V16.1446C20.416 16.2877 20.4786 16.4219 20.5949 16.5024L24.3078 19.2938L24.4689 19.4101C24.6299 19.5264 24.8536 19.5264 24.9878 19.3833C25.6141 18.7033 25.6051 17.7192 24.9431 16.8961Z" fill="#3A6FF8"/>
<path d="M14.4123 16.9771L18.1252 12.2533C18.1968 12.1638 18.2683 12.0833 18.3489 12.0027C18.5815 11.7791 18.9125 11.9759 18.9125 12.3069V16.2167C18.9125 16.3598 18.8499 16.4851 18.7336 16.5745L15.0386 19.4106L14.8865 19.5269C14.7254 19.6433 14.5018 19.6433 14.3586 19.4912C13.7502 18.8023 13.7592 17.8181 14.4123 16.9771Z" fill="#3A6FF8"/>
</svg>
