<svg width="23" height="22" viewBox="0 0 23 22" fill="none" xmlns="http://www.w3.org/2000/svg">
<path d="M8.79253 13.4342L10.233 14.0784C11.1545 14.49 12.2102 14.49 13.1406 14.0784L14.5811 13.4342C15.8694 12.8617 17.0593 14.4184 16.1646 15.5099L13.0691 19.2944C12.3086 20.2248 11.065 20.2248 10.2956 19.2944L7.20896 15.5099C6.30534 14.4184 7.49525 12.8617 8.79253 13.4342Z" fill="#3A6FF8"/>
<path d="M8.61343 10.9649C8.34503 11.1618 8.38082 11.5733 8.68501 11.7254L10.7875 12.7722C11.2796 13.0227 12.0758 13.0227 12.5589 12.7722L14.6614 11.7254C14.9567 11.5733 14.9925 11.1707 14.733 10.9649L11.9506 8.87141C11.7895 8.7551 11.5748 8.7551 11.4138 8.87141L8.61343 10.9649Z" fill="#3A6FF8"/>
<path d="M16.9431 7.8961L13.2123 3.2438C13.1407 3.15434 13.0602 3.07382 12.9797 2.9933C12.747 2.76963 12.416 2.9754 12.416 3.29748V7.14458C12.416 7.28773 12.4786 7.42193 12.5949 7.50245L16.3078 10.2938L16.4689 10.4101C16.6299 10.5264 16.8536 10.5264 16.9878 10.3833C17.6141 9.70335 17.6051 8.7192 16.9431 7.8961Z" fill="#3A6FF8"/>
<path d="M6.4123 7.97713L10.1252 3.25325C10.1968 3.16378 10.2683 3.08326 10.3489 3.00274C10.5815 2.77907 10.9125 2.9759 10.9125 3.30693V7.21665C10.9125 7.3598 10.8499 7.48506 10.7336 7.57452L7.03857 10.4106L6.88647 10.5269C6.72543 10.6433 6.50177 10.6433 6.35862 10.4912C5.75024 9.80226 5.75919 8.81812 6.4123 7.97713Z" fill="#3A6FF8"/>
</svg>
