<svg width="34" height="34" viewBox="0 0 34 34" fill="none" xmlns="http://www.w3.org/2000/svg">
<g clip-path="url(#clip0_598_7771)">
<path d="M33.3422 13.7355H31.9997V13.6663H16.9997V20.333H26.4188C25.0447 24.2138 21.3522 26.9997 16.9997 26.9997C11.4772 26.9997 6.99967 22.5222 6.99967 16.9997C6.99967 11.4772 11.4772 6.99967 16.9997 6.99967C19.5488 6.99967 21.868 7.96134 23.6338 9.53217L28.348 4.81801C25.3713 2.04384 21.3897 0.333008 16.9997 0.333008C7.79551 0.333008 0.333008 7.79551 0.333008 16.9997C0.333008 26.2038 7.79551 33.6663 16.9997 33.6663C26.2038 33.6663 33.6663 26.2038 33.6663 16.9997C33.6663 15.8822 33.5513 14.7913 33.3422 13.7355Z" fill="#FFC107"/>
<path d="M2.25488 9.24217L7.73072 13.258C9.21238 9.58967 12.8007 6.99967 16.9999 6.99967C19.549 6.99967 21.8682 7.96134 23.634 9.53217L28.3482 4.81801C25.3715 2.04384 21.3899 0.333008 16.9999 0.333008C10.5982 0.333008 5.04655 3.94717 2.25488 9.24217Z" fill="#FF3D00"/>
<path d="M16.9996 33.6663C21.3046 33.6663 25.2163 32.0188 28.1738 29.3396L23.0154 24.9746C21.2862 26.2905 19.1726 27.0019 16.9996 26.9996C12.6646 26.9996 8.98378 24.2354 7.59711 20.3779L2.16211 24.5654C4.92044 29.9629 10.5221 33.6663 16.9996 33.6663Z" fill="#4CAF50"/>
<path d="M33.3425 13.7362H32V13.667H17V20.3337H26.4192C25.7618 22.1807 24.5778 23.7946 23.0133 24.9762L23.0158 24.9745L28.1742 29.3395C27.8092 29.6712 33.6667 25.3337 33.6667 17.0003C33.6667 15.8828 33.5517 14.792 33.3425 13.7362Z" fill="#1976D2"/>
</g>
<defs>
<clipPath id="clip0_598_7771">
<rect width="34" height="34" fill="white"/>
</clipPath>
</defs>
</svg>
