<svg width="16" height="16" viewBox="0 0 16 16" fill="none" xmlns="http://www.w3.org/2000/svg">
<path d="M8.09905 1.2793C4.58521 1.2793 1.7334 4.13111 1.7334 7.64495C1.7334 11.1588 4.58521 14.0106 8.09905 14.0106C11.6129 14.0106 14.4647 11.1588 14.4647 7.64495C14.4647 4.13111 11.6129 1.2793 8.09905 1.2793ZM10.5307 10.3949C10.4734 10.7005 10.2124 10.9169 9.90689 10.9169H6.38032C5.96018 10.9169 5.65464 10.5095 5.76922 10.1085L6.30393 8.23059L5.21541 8.44702C5.18358 8.45339 5.15176 8.45338 5.11993 8.45338C4.89713 8.45338 4.69979 8.29424 4.65523 8.07145C4.6043 7.81045 4.76981 7.5622 5.0308 7.51127L6.60312 7.19935L7.43702 4.29025C7.47521 4.15657 7.60253 4.06109 7.74257 4.06109H8.60829C9.02843 4.06109 9.33398 4.45576 9.22576 4.86316L8.71015 6.77922L9.93873 6.53096C10.1934 6.48003 10.448 6.64554 10.4989 6.90653C10.5498 7.16752 10.3843 7.41579 10.1233 7.46671L8.43006 7.80409L8.07995 9.10905H10.0087C10.4034 9.10905 10.7026 9.46553 10.6326 9.8602L10.5307 10.3949Z" fill="#64CFF9"/>
</svg>
