<svg width="29" height="29" viewBox="0 0 29 29" fill="none" xmlns="http://www.w3.org/2000/svg">
<rect x="0.0947266" y="0.640625" width="28.0089" height="28.0089" rx="6.36565" fill="#31353F"/>
<path d="M14.099 8.2793C10.5852 8.2793 7.7334 11.1311 7.7334 14.6449C7.7334 18.1588 10.5852 21.0106 14.099 21.0106C17.6129 21.0106 20.4647 18.1588 20.4647 14.6449C20.4647 11.1311 17.6129 8.2793 14.099 8.2793ZM16.5307 17.3949C16.4734 17.7005 16.2124 17.9169 15.9069 17.9169H12.3803C11.9602 17.9169 11.6546 17.5095 11.7692 17.1085L12.3039 15.2306L11.2154 15.447C11.1836 15.4534 11.1518 15.4534 11.1199 15.4534C10.8971 15.4534 10.6998 15.2942 10.6552 15.0714C10.6043 14.8105 10.7698 14.5622 11.0308 14.5113L12.6031 14.1994L13.437 11.2903C13.4752 11.1566 13.6025 11.0611 13.7426 11.0611H14.6083C15.0284 11.0611 15.334 11.4558 15.2258 11.8632L14.7101 13.7792L15.9387 13.531C16.1934 13.48 16.448 13.6455 16.4989 13.9065C16.5498 14.1675 16.3843 14.4158 16.1233 14.4667L14.4301 14.8041L14.08 16.1091H16.0087C16.4034 16.1091 16.7026 16.4655 16.6326 16.8602L16.5307 17.3949Z" fill="#64CFF9"/>
</svg>
