<svg width="42" height="49" viewBox="0 0 42 49" fill="none" xmlns="http://www.w3.org/2000/svg">
<path fill-rule="evenodd" clip-rule="evenodd" d="M22.9818 0.520583L23.3744 0.662895C23.7268 0.790685 24.0787 0.919832 24.4305 1.04925C24.7556 1.16857 25.0809 1.28693 25.4063 1.40528L25.546 1.45609C26.4676 1.79173 27.3883 2.12981 28.3089 2.46842L28.5271 2.54866C29.8024 3.01762 31.0773 3.48744 32.3517 3.9588C34.0031 4.56937 35.657 5.17226 37.3168 5.75976C38.3632 6.13139 39.402 6.52166 40.4397 6.9165L40.8835 7.08513C41.2421 7.22141 41.6007 7.35778 41.9593 7.49421C41.967 9.99023 41.9728 12.4863 41.9763 14.9823C41.978 16.1415 41.9803 17.3006 41.984 18.4598C41.9873 19.4712 41.9894 20.4825 41.9901 21.4939C41.9906 22.0285 41.9915 22.563 41.994 23.0976C42.0066 26.0234 42.0106 26.9379 41.8882 27.8353C41.8325 28.2433 41.7507 28.6478 41.6317 29.2362L41.5644 29.5978C41.5144 29.8598 41.4567 30.1176 41.3928 30.3766L41.324 30.6578C40.4812 33.9551 38.8775 37.0711 36.6083 39.6156L36.3238 39.9361C35.2935 41.0837 34.2205 42.1596 33.0046 43.1118L32.6787 43.3734C29.7411 45.7094 26.2519 47.4843 22.7054 48.6838L22.4231 48.7801C20.1621 49.5198 17.6369 48.2415 15.5666 47.1936C15.4629 47.1411 15.3604 47.0892 15.2591 47.0382C15.0534 46.9317 14.8484 46.8239 14.644 46.715C14.4354 46.6055 14.2248 46.5008 14.0135 46.3967C8.22438 43.5018 3.23006 38.4427 1.13771 32.2476C0.882365 31.4601 0.670358 30.6637 0.482487 29.8576L0.417941 29.5815C0.0804337 28.0418 -0.00679272 26.5274 0.000403248 24.9581C0.000464901 24.7663 0.000429909 24.5744 0.000306601 24.3826C0.000244531 23.8676 0.00151801 23.3526 0.00305268 22.8375C0.00428992 22.3516 0.00451029 21.8657 0.00473066 21.3798L0.00480564 21.2164C0.00548133 20.1957 0.00726887 19.175 0.00946799 18.1543C0.0119187 16.9912 0.013113 15.828 0.014207 14.6649C0.0164827 12.2747 0.0203182 9.88444 0.025198 7.49421C1.95075 6.76947 2.54639 6.54528 3.14429 6.32727C3.41199 6.22966 3.68014 6.13329 4.0683 5.99379L4.81202 5.72533L5.19452 5.58744C5.88644 5.33795 6.57814 5.08787 7.26974 4.83749L7.48472 4.75966C8.91167 4.24283 10.3358 3.71834 11.7592 3.19202C12.4258 2.94575 13.0927 2.70035 13.7596 2.45495L13.7609 2.45449L14.062 2.34367C14.8369 2.05828 15.611 1.77078 16.3846 1.48206C16.8899 1.29397 17.3958 1.1076 17.9019 0.921635C18.1394 0.833947 18.3766 0.745533 18.6135 0.656343C18.9394 0.533772 19.2661 0.413801 19.5931 0.294388L19.8797 0.18442C20.9943 -0.215402 21.8524 0.102334 22.9199 0.497675L22.9818 0.520583ZM30.3792 16.4553C30.3846 16.4584 30.3901 16.4615 30.3955 16.4647C30.6588 16.6188 30.8628 16.7987 31.0987 17.0379L31.3781 17.3196L31.6669 17.6141L31.9608 17.9111C32.2 18.153 32.4388 18.3955 32.677 18.6383C32.5074 19.0606 32.2161 19.3484 31.9001 19.6608L31.8685 19.692L31.6842 19.877C31.4801 20.0815 31.2753 20.2853 31.0705 20.489L30.9387 20.6208C30.8363 20.7233 30.7338 20.8258 30.6314 20.9284C30.2339 21.3261 29.8358 21.7232 29.4375 22.1201C26.7553 24.7948 24.0774 27.4737 21.3972 30.1505C20.1341 31.412 18.8707 32.6732 17.6069 33.9342C9.5259 25.8493 17.6069 33.9342 9.30749 25.8493C9.48862 25.4643 9.69697 25.2157 10.0011 24.9155L10.2826 24.6359L10.577 24.347L10.8739 24.0529C11.1157 23.8136 11.358 23.5748 11.6008 23.3364C12.0094 23.5068 12.2679 23.7589 12.5784 24.0711L12.7367 24.2295C12.9086 24.4016 13.0797 24.5744 13.2508 24.7473C13.3701 24.8671 13.4894 24.9868 13.6088 25.1065C14.8704 26.3721 16.1299 27.6399 17.3885 28.9084C30.3955 16.4647 17.3885 28.9084 30.3792 16.4553Z" fill="#CECECE"/>
</svg>
